<svg width="425" height="172" viewBox="0 0 425 172" fill="none" xmlns="http://www.w3.org/2000/svg">
<g clip-path="url(#clip0_505_15547)" filter="url(#filter0_dd_505_15547)">
<path d="M181.347 121.439C175.667 126.279 168.75 130.748 159.857 130.748C152.637 130.748 147.997 127.569 147.08 116.733C143.693 125.733 133.987 130.996 124.047 130.996C112.437 130.996 105.027 125.288 105.027 114.613C105.027 94.9975 132.733 98.317 146.77 88.7238V81.2307C146.77 73.4128 145.41 64.724 136.89 64.724C130.467 64.724 127.38 68.5693 127.38 74.6522C127.38 76.3638 128.003 78.3903 129.06 79.978C131.553 83.7195 130.723 88.851 126.89 91.179C125.13 92.2475 123.03 92.7701 120.837 92.7701C114.167 92.7701 109.103 88.8008 109.103 81.7265C109.103 66.8342 128.863 63.7325 136.893 63.7325C154.183 63.7325 169.743 68.5727 169.743 82.9692V113.002C169.743 117.098 169.743 122.806 175.423 122.806C177.027 122.806 178.51 122.31 180.857 120.696L181.347 121.439ZM138.737 121.935C143.923 121.935 146.763 117.343 146.763 112.75V89.9531C137.973 95.6306 130.217 95.8785 130.217 109.649C130.217 115.604 132.317 121.935 138.74 121.935H138.737ZM180.533 130.004V129.013C189.303 129.013 190.413 126.531 190.413 114.616V51.5702C190.413 43.2565 189.92 33.1742 179.297 35.5323L179.05 34.5409L213.383 26.2272V114.619C213.383 126.534 214.493 129.016 223.263 129.016V130.007H180.53L180.533 130.004ZM291.423 106.798C285.99 120.076 274.75 130.999 257.583 130.999C240.417 130.999 225.843 118.713 225.843 98.4845C225.843 78.2563 240.17 63.7359 261.907 63.7359C283.643 63.7359 294.263 74.5316 290.313 90.2947H249.213C249.743 107.89 257.15 116.566 269.02 116.566C275.193 116.566 286.237 113.253 290.683 106.426L291.427 106.801L291.423 106.798ZM261.91 64.7273C251.29 64.7273 249.19 79.7435 249.19 88.6802V89.052H270.313C272.293 81.3413 271.467 64.7307 261.907 64.7307L261.91 64.7273ZM347.35 63.7359C355.907 63.7359 363.823 69.2761 363.52 79.8306C363.303 87.461 357.2 93.7615 349.607 93.6443C349.397 93.6443 349.187 93.6343 348.977 93.6209C342.35 93.2089 339.257 85.3943 343.303 80.1053C344.383 78.6951 345.003 76.9567 345.003 75.0307C345.003 71.0614 343.273 68.3281 339.57 68.3281C333.607 68.3281 329.137 76.4341 326.727 84.8181V114.619C326.727 126.534 327.837 129.016 337.843 129.016V130.007H293.877V129.016C302.647 129.016 303.757 126.534 303.757 114.619V83.5922C303.757 75.2785 303.263 70.9341 292.64 73.2922L292.393 72.3007L326.973 63.9871L326.493 82.2758C329.507 72.6424 335.553 63.7392 347.35 63.7392V63.7359ZM54.8733 37.5789C52.6467 32.913 50.7433 29.0475 48.9633 25.9224H14V26.9172C22.8967 26.9172 26.6 33.3719 34.3833 49.6307L75.39 132.493L87.91 104.226L54.8733 37.5789ZM110.9 25.2759C106.23 23.3767 97.2967 31.6066 93.9133 40.004C90.5333 48.4048 92.0467 56.9429 97.2933 59.0766C102.54 61.2103 109.537 56.1289 112.917 47.7282C116.297 39.3274 115.41 27.1081 110.897 25.2726L110.9 25.2759ZM410.667 130.007V129.016C401.897 129.016 400.787 126.534 400.787 114.619V78.2563L401.033 63.9837L366.453 72.2974L366.7 73.2889C377.32 70.9308 377.817 75.2752 377.817 83.5888V114.616C377.817 126.531 376.707 129.013 367.937 129.013V130.004H410.667V130.007ZM395.92 25.2759C391.25 23.3767 382.317 31.6066 378.933 40.004C375.553 48.4048 377.067 56.9429 382.313 59.0766C387.56 61.2103 394.557 56.1289 397.937 47.7282C401.317 39.3274 400.43 27.1081 395.917 25.2726L395.92 25.2759Z" fill="#EAD7CA"/>
<path d="M129.743 156.901V140.334H134.613C136.38 140.334 137.72 140.699 138.633 141.433C139.547 142.167 140.003 143.245 140.003 144.672C140.003 145.53 139.77 146.276 139.307 146.91C138.843 147.543 138.207 147.998 137.4 148.27C138.36 148.481 139.13 148.956 139.717 149.69C140.3 150.427 140.593 151.274 140.593 152.239C140.593 153.703 140.123 154.845 139.183 155.669C138.243 156.493 136.937 156.901 135.26 156.901H129.747H129.743ZM131.137 147.764H134.94C136.103 147.74 137.003 147.466 137.64 146.936C138.277 146.407 138.597 145.637 138.597 144.629C138.597 143.563 138.267 142.78 137.607 142.274C136.947 141.768 135.947 141.517 134.61 141.517H131.133V147.764H131.137ZM131.137 148.946V155.716H135.317C136.51 155.716 137.453 155.411 138.153 154.801C138.85 154.192 139.2 153.344 139.2 152.262C139.2 151.241 138.867 150.43 138.197 149.837C137.53 149.241 136.607 148.946 135.427 148.946H131.133H131.137ZM160.017 148.956H152.303V155.716H161.17V156.898H150.91V140.331H161.113V141.513H152.303V147.774H160.017V148.956ZM179.963 152.245H172.477L170.777 156.898H169.317L175.557 140.331H176.88L183.12 156.898H181.67L179.96 152.245H179.963ZM172.907 151.063H179.52L176.213 142.039L172.907 151.063ZM203.667 140.331V151.643C203.66 152.758 203.413 153.729 202.93 154.557C202.447 155.384 201.767 156.02 200.887 156.463C200.007 156.905 198.997 157.129 197.857 157.129C196.12 157.129 194.73 156.654 193.683 155.702C192.637 154.751 192.097 153.431 192.057 151.746V140.334H193.437V151.542C193.437 152.939 193.833 154.021 194.627 154.791C195.42 155.562 196.497 155.947 197.853 155.947C199.21 155.947 200.287 155.558 201.077 154.784C201.867 154.011 202.26 152.935 202.26 151.552V140.331H203.663H203.667ZM225.697 141.513H220.047V156.898H218.653V141.513H213.013V140.331H225.697V141.513ZM240.333 149.365L245.373 140.331H246.98L241.023 150.664V156.901H239.63V150.664L233.683 140.331H235.337L240.33 149.365H240.333ZM268.937 156.898V140.331H273.807C275.573 140.331 276.913 140.696 277.827 141.43C278.74 142.163 279.197 143.242 279.197 144.669C279.197 145.526 278.963 146.273 278.5 146.906C278.037 147.539 277.4 147.995 276.593 148.266C277.55 148.477 278.323 148.953 278.91 149.686C279.493 150.423 279.787 151.271 279.787 152.235C279.787 153.699 279.317 154.841 278.377 155.665C277.437 156.489 276.13 156.898 274.453 156.898H268.94H268.937ZM270.33 147.76H274.133C275.297 147.737 276.197 147.462 276.833 146.933C277.47 146.404 277.79 145.633 277.79 144.625C277.79 143.56 277.46 142.776 276.8 142.27C276.14 141.765 275.14 141.513 273.803 141.513H270.327V147.76H270.33ZM270.33 148.943V155.712H274.51C275.703 155.712 276.647 155.407 277.347 154.798C278.043 154.188 278.393 153.341 278.393 152.259C278.393 151.237 278.06 150.427 277.39 149.834C276.72 149.241 275.8 148.943 274.62 148.943H270.327H270.33ZM299.007 152.242H291.52L289.82 156.895H288.36L294.6 140.328H295.923L302.163 156.895H300.713L299.003 152.242H299.007ZM291.95 151.06H298.563L295.257 142.036L291.95 151.06ZM317.707 149.991H312.917V156.898H311.513V140.331H316.87C318.63 140.331 320.003 140.76 320.993 141.614C321.983 142.471 322.477 143.667 322.477 145.205C322.477 146.266 322.167 147.201 321.547 148.012C320.927 148.822 320.097 149.385 319.057 149.693L323.18 156.747V156.895H321.697L317.71 149.988L317.707 149.991ZM312.917 148.809H317.187C318.357 148.809 319.297 148.474 320.007 147.807C320.717 147.137 321.07 146.273 321.07 145.208C321.07 144.039 320.7 143.131 319.96 142.485C319.22 141.838 318.183 141.517 316.847 141.517H312.917V148.812V148.809Z" fill="#EAD7CA"/>
</g>
<defs>
<filter id="filter0_dd_505_15547" x="-2" y="-6" width="428" height="177.789" filterUnits="userSpaceOnUse" color-interpolation-filters="sRGB">
<feFlood flood-opacity="0" result="BackgroundImageFix"/>
<feColorMatrix in="SourceAlpha" type="matrix" values="0 0 0 0 0 0 0 0 0 0 0 0 0 0 0 0 0 0 127 0" result="hardAlpha"/>
<feOffset dx="-4" dy="4"/>
<feGaussianBlur stdDeviation="5"/>
<feComposite in2="hardAlpha" operator="out"/>
<feColorMatrix type="matrix" values="0 0 0 0 0 0 0 0 0 0 0 0 0 0 0 0 0 0 0.25 0"/>
<feBlend mode="normal" in2="BackgroundImageFix" result="effect1_dropShadow_505_15547"/>
<feColorMatrix in="SourceAlpha" type="matrix" values="0 0 0 0 0 0 0 0 0 0 0 0 0 0 0 0 0 0 127 0" result="hardAlpha"/>
<feOffset dx="4" dy="4"/>
<feGaussianBlur stdDeviation="5"/>
<feComposite in2="hardAlpha" operator="out"/>
<feColorMatrix type="matrix" values="0 0 0 0 0 0 0 0 0 0 0 0 0 0 0 0 0 0 0.25 0"/>
<feBlend mode="normal" in2="effect1_dropShadow_505_15547" result="effect2_dropShadow_505_15547"/>
<feBlend mode="normal" in="SourceGraphic" in2="effect2_dropShadow_505_15547" result="shape"/>
</filter>
<clipPath id="clip0_505_15547">
<rect width="400" height="157.789" fill="white" transform="translate(12)"/>
</clipPath>
</defs>
</svg>
